<svg width="40" height="40" viewBox="0 0 40 40" fill="none" xmlns="http://www.w3.org/2000/svg">
<g clip-path="url(#clip0_1110_1463)">
<path d="M11.7157 24.8981H5.23746C4.76285 24.8981 4.85847 24.5133 4.85847 24.0387C4.85847 23.5641 4.76285 23.1793 5.23746 23.1793H11.7157C12.1903 23.1793 12.575 23.5641 12.575 24.0387C12.575 24.5133 12.1903 24.8981 11.7157 24.8981Z" fill="#FE5000"/>
<path d="M8.18849 35.879C7.83052 35.879 7.4992 35.6461 7.3799 35.3086C7.26029 34.9702 7.36498 34.5835 7.64326 34.3551C7.91732 34.1302 8.31092 34.0987 8.61795 34.2752C8.93217 34.4558 9.10373 34.831 9.03146 35.1868C8.95091 35.5831 8.59427 35.879 8.18849 35.879Z" fill="#FE5000"/>
<path d="M30.9252 35.8789C30.5656 35.8789 30.2388 35.6452 30.117 35.3085C29.9951 34.9717 30.1035 34.5817 30.3805 34.355C30.6546 34.1307 31.0479 34.0981 31.3549 34.2751C31.67 34.4568 31.8396 34.83 31.7681 35.1868C31.6887 35.5832 31.3304 35.8789 30.9252 35.8789Z" fill="#FE5000"/>
<path d="M28.6062 12.6132C30.9226 12.6132 32.8071 10.7262 32.8071 8.40659C32.8071 6.08698 30.9226 4.19995 28.6062 4.19995C26.2898 4.19995 24.4053 6.08698 24.4053 8.40659C24.4053 10.7262 26.2898 12.6132 28.6062 12.6132ZM28.6062 5.91878C29.9749 5.91878 31.0884 7.0348 31.0884 8.40667C31.0884 9.77855 29.9749 10.8946 28.6062 10.8946C27.2375 10.8946 26.124 9.77855 26.124 8.40667C26.124 7.0348 27.2375 5.91878 28.6062 5.91878Z" fill="#FE5000"/>
<path d="M38.735 11.2894H36.5675C36.8538 10.3543 36.9996 9.38992 36.9996 8.40672C36.9996 3.77117 33.2342 0 28.6058 0C23.9775 0 20.2119 3.77117 20.2119 8.40664C20.2119 9.38992 20.3577 10.3542 20.644 11.2893H12.2625C11.7879 11.2893 11.4031 11.6741 11.4031 12.1487V16.0947H8.22223C6.59387 16.0947 5.18605 17.3138 4.94738 18.9305L4.27582 23.4803L2.11215 24.6829C1.05934 25.268 0.405273 26.3819 0.405273 27.5898V34.8986C0.405273 35.3732 0.790039 35.758 1.26465 35.758H3.28309C3.63957 38.1553 5.70379 40 8.18894 40C10.6741 40 12.7383 38.1553 13.0949 35.758H26.0201C26.3766 38.1553 28.4408 40 30.926 40C33.4111 40 35.4753 38.1553 35.8318 35.758H38.735C39.2096 35.758 39.5943 35.3732 39.5943 34.8986V12.1488C39.5943 11.6741 39.2096 11.2894 38.735 11.2894ZM28.6058 1.71875C32.2864 1.71875 35.2809 4.71891 35.2809 8.40664C35.2809 10.9761 34.1217 13.3247 31.8353 15.3874C30.5353 16.5603 29.2151 17.3086 28.6059 17.6231C27.9961 17.3083 26.6762 16.5602 25.3763 15.3873C23.09 13.3247 21.9307 10.976 21.9307 8.40656C21.9307 4.71891 24.9251 1.71875 28.6058 1.71875ZM3.32496 34.0392H2.12402V27.5898C2.12402 27.0055 2.43941 26.4674 2.94715 26.1852L5.4816 24.7766C5.71527 24.6467 5.87527 24.4155 5.91426 24.1509L6.64777 19.1816C6.76285 18.4016 7.43973 17.8134 8.22223 17.8134H11.4031V31.2281C10.5368 30.4864 9.41394 30.0381 8.18887 30.0381C5.78769 30.0382 3.77949 31.7604 3.32496 34.0392ZM8.18894 38.2812C6.40152 38.2812 4.9473 36.8179 4.9473 35.0191C4.9473 33.2204 6.40152 31.757 8.18894 31.757C9.97637 31.757 11.4306 33.2203 11.4306 35.0191C11.4306 36.8179 9.97637 38.2812 8.18894 38.2812ZM30.926 38.2812C29.1386 38.2812 27.6843 36.8179 27.6843 35.0191C27.6843 33.2204 29.1386 31.757 30.926 31.757C32.7134 31.757 34.1676 33.2203 34.1676 35.0191C34.1676 36.8179 32.7134 38.2812 30.926 38.2812ZM37.8756 34.0392H35.79C35.3354 31.7604 33.3272 30.0382 30.926 30.0382C28.5247 30.0382 26.5165 31.7604 26.062 34.0392H13.1186C13.1207 34.0146 13.1218 33.9896 13.1218 33.9645V13.0081H21.3457C22.025 14.3277 23.0036 15.5693 24.265 16.6997C26.2276 18.4583 28.1764 19.3297 28.2584 19.3659C28.369 19.4148 28.4874 19.4392 28.6057 19.4392C28.7241 19.4392 28.8425 19.4148 28.9531 19.3659C29.035 19.3297 30.9839 18.4583 32.9464 16.6997C34.2079 15.5693 35.1864 14.3277 35.8657 13.0081H37.8755V34.0392H37.8756Z" fill="#FE5000"/>
</g>
<defs>
<clipPath id="clip0_1110_1463">
<rect width="40" height="40" fill="white"/>
</clipPath>
</defs>
</svg>
