<svg width="40" height="40" viewBox="0 0 40 40" fill="none" xmlns="http://www.w3.org/2000/svg">
<path d="M39.1406 27.8701H37.2203V6.41882C37.2203 5.94421 36.8355 5.55945 36.3609 5.55945H3.63906C3.16445 5.55945 2.77969 5.94421 2.77969 6.41882V27.8701H0.859375C0.384766 27.8701 0 28.2548 0 28.7295V30.3996C0 32.6278 1.79586 34.4405 4.00328 34.4405H35.9967C38.2041 34.4405 40 32.6278 40 30.3996V28.7295C40 28.2548 39.6152 27.8701 39.1406 27.8701ZM4.49844 7.2782H35.5016V27.8701H26.6809C26.1666 27.8673 25.7783 28.3187 25.8216 28.8245H14.1786C14.2219 28.3187 13.8335 27.8672 13.3192 27.8701H4.49844V7.2782ZM38.2812 30.3996C38.2812 31.6801 37.2564 32.7218 35.9967 32.7218H4.00328C2.74359 32.7218 1.71875 31.6801 1.71875 30.3996V29.5888H12.4598C12.4166 30.0946 12.8049 30.5462 13.3192 30.5433H26.6809C27.1953 30.5461 27.5836 30.0946 27.5403 29.5888H38.2812V30.3996Z" fill="#FE5000"/>
<path d="M8.56348 24.549C8.34355 24.549 8.12363 24.4651 7.95582 24.2973C7.6202 23.9617 7.6202 23.4175 7.95582 23.0819L14.389 16.6487C14.5531 16.4847 14.7765 16.3942 15.0083 16.3971C15.2403 16.4002 15.4611 16.4969 15.6206 16.6654L20.0266 21.3161L30.8391 10.8415C31.18 10.5111 31.7241 10.5198 32.0543 10.8607C32.3846 11.2016 32.3759 11.7457 32.035 12.0759L20.5982 23.1553C20.4333 23.315 20.2126 23.4011 19.9818 23.3972C19.7523 23.3923 19.5343 23.2957 19.3764 23.1291L14.98 18.4885L9.17105 24.2974C9.00332 24.4651 8.7834 24.549 8.56348 24.549Z" fill="#FE5000"/>
</svg>
