<svg width="40" height="40" viewBox="0 0 40 40" fill="none" xmlns="http://www.w3.org/2000/svg">
<g clip-path="url(#clip0_1110_1450)">
<path d="M39.4696 16.3368L36.9252 15.2825C36.545 13.9158 35.9995 12.6009 35.2994 11.3633L36.353 8.82039C36.4861 8.4993 36.4127 8.12961 36.1669 7.88383L32.1133 3.82906C31.8675 3.58328 31.4979 3.50969 31.1768 3.64266L28.6302 4.69711C27.3924 3.99758 26.0775 3.45273 24.7106 3.07305L23.6581 0.531406C23.5252 0.210312 23.2119 0.000859375 22.8642 0.00078125L17.1308 0H17.1307C16.7831 0 16.4698 0.209375 16.3368 0.530391L15.2825 3.07484C13.9158 3.455 12.6009 4.00047 11.3633 4.70062L8.82031 3.64695C8.49922 3.51391 8.12953 3.58742 7.88375 3.83312L3.82898 7.88672C3.5832 8.1325 3.50961 8.50211 3.64258 8.82328L4.69703 11.3698C3.99742 12.6077 3.45266 13.9226 3.07297 15.2895L0.531406 16.3419C0.210312 16.4748 0.000859375 16.7881 0.00078125 17.1358L0 22.8692C0 23.2168 0.209297 23.5302 0.530391 23.6633L3.07484 24.7176C3.455 26.0843 4.00047 27.3991 4.70062 28.6368L3.64695 31.1797C3.51391 31.5008 3.58734 31.8705 3.83312 32.1162L7.88672 36.171C8.1325 36.4168 8.50211 36.4904 8.82328 36.3574L11.3698 35.303C12.6077 36.0026 13.9227 36.5474 15.2895 36.927L16.3419 39.4687C16.4748 39.7898 16.7881 39.9992 17.1358 39.9993L22.8692 40.0001C23.2168 40.0001 23.5302 39.7908 23.6632 39.4697L24.7175 36.9253C26.0843 36.5451 27.3991 35.9997 28.6367 35.2994L31.1796 36.3531C31.5007 36.4862 31.8704 36.4127 32.1162 36.167L36.1709 32.1134C36.4167 31.8676 36.4903 31.498 36.3573 31.1768L35.3029 28.6302C36.0025 27.3924 36.5473 26.0775 36.927 24.7106L39.4686 23.6582C39.7897 23.5252 39.9991 23.212 39.9992 22.8643L40 17.1309C40 16.7832 39.7907 16.4698 39.4696 16.3368ZM38.2805 22.2898L35.8763 23.2854C35.6249 23.3895 35.4377 23.6063 35.3716 23.8702C34.9961 25.3659 34.4031 26.7974 33.6089 28.1247C33.4693 28.358 33.4483 28.6435 33.5523 28.8947L34.5498 31.3037L31.3073 34.5453L28.9015 33.5484C28.6501 33.4443 28.3643 33.4653 28.1309 33.6052C26.8038 34.4001 25.3726 34.9937 23.877 35.3698C23.6134 35.4361 23.3966 35.6232 23.2926 35.8743L22.2953 38.2811L17.7103 38.2805L16.7148 35.8762C16.6107 35.6248 16.3938 35.4377 16.13 35.3715C14.6343 34.9961 13.2029 34.403 11.8755 33.6087C11.6422 33.4692 11.3566 33.4481 11.1055 33.5522L8.69648 34.5497L5.45484 31.3072L6.45172 28.9014C6.55586 28.6501 6.53484 28.3642 6.395 28.1309C5.60008 26.8037 5.00641 25.3725 4.63039 23.8769C4.56414 23.6133 4.37703 23.3966 4.12594 23.2925L1.71914 22.2952L1.71977 17.7102L4.12406 16.7147C4.37539 16.6106 4.56258 16.3937 4.62875 16.1299C5.00422 14.6341 5.59719 13.2027 6.39141 11.8754C6.53102 11.6421 6.55203 11.3566 6.44797 11.1054L5.45047 8.69641L8.69305 5.45476L11.0988 6.45164C11.3502 6.5557 11.6359 6.53477 11.8694 6.39492C13.1965 5.6 14.6277 5.00633 16.1234 4.63031C16.387 4.56406 16.6037 4.37695 16.7077 4.12586L17.705 1.71906L22.29 1.71969L23.2855 4.12398C23.3896 4.37531 23.6065 4.5625 23.8703 4.62867C25.3661 5.00414 26.7976 5.59711 28.1248 6.39133C28.358 6.53094 28.6436 6.55187 28.8948 6.44789L31.3039 5.45039L34.5455 8.69289L33.5487 11.0987C33.4445 11.35 33.4655 11.6359 33.6054 11.8692C34.4003 13.1963 34.994 14.6276 35.37 16.1232C35.4362 16.3868 35.6234 16.6035 35.8745 16.7076L38.2812 17.7048L38.2805 22.2898Z" fill="#FE5000"/>
<path d="M20.0002 7.00562C12.8352 7.00562 7.00586 12.8348 7.00586 20C7.00586 27.1651 12.8352 32.9944 20.0002 32.9944C27.1653 32.9944 32.9946 27.1651 32.9946 20C32.9946 12.8349 27.1653 7.00562 20.0002 7.00562ZM17.9387 31.0861L18.5666 22.2288C18.5922 21.8673 18.3882 21.5286 18.0567 21.382C16.3124 20.6111 15.1853 18.8819 15.1853 16.9769C15.1853 15.6326 15.7563 14.363 16.7102 13.4648V15.4144C16.7102 15.6423 16.8007 15.8609 16.9619 16.022L18.0589 17.119C18.22 17.2801 18.4386 17.3707 18.6666 17.3707H21.334C21.5619 17.3707 21.7805 17.2801 21.9416 17.119L23.0387 16.022C23.1998 15.8609 23.2904 15.6423 23.2904 15.4144V13.4648C24.2443 14.363 24.8152 15.6326 24.8152 16.9769C24.8152 18.8819 23.6881 20.6111 21.9438 21.382C21.6123 21.5285 21.4084 21.8673 21.434 22.2288L22.0619 31.0861C21.3933 31.2101 20.7043 31.2756 20.0003 31.2756C19.2963 31.2756 18.6073 31.2101 17.9387 31.0861ZM23.7527 30.6328L23.1889 22.6793C25.2393 21.5321 26.5339 19.3557 26.5339 16.9769C26.5339 14.4673 25.0681 12.1498 22.7995 11.0726C22.5333 10.9461 22.2209 10.965 21.9717 11.1225C21.7226 11.28 21.5716 11.5541 21.5716 11.8489V15.0584L20.978 15.652H19.0225L18.4289 15.0584V11.8489C18.4289 11.5542 18.2779 11.28 18.0288 11.1225C17.7796 10.965 17.4672 10.9462 17.2009 11.0726C14.9323 12.1498 13.4666 14.4674 13.4666 16.9769C13.4666 19.3556 14.7612 21.5321 16.8116 22.6793L16.2477 30.6328C11.8697 29.0831 8.72461 24.9023 8.72461 20C8.72461 13.7826 13.7828 8.72437 20.0002 8.72437C26.2177 8.72437 31.2759 13.7826 31.2759 20C31.2759 24.9023 28.1308 29.0831 23.7527 30.6328Z" fill="#FE5000"/>
</g>
<defs>
<clipPath id="clip0_1110_1450">
<rect width="40" height="40" fill="white"/>
</clipPath>
</defs>
</svg>
