<svg width="19" height="19" viewBox="0 0 19 19" fill="none" xmlns="http://www.w3.org/2000/svg">
<g clip-path="url(#clip0_1234_4327)">
<path d="M0.441406 18.5957L1.72052 13.9247C0.931511 12.5576 0.516495 11.0069 0.517075 9.41811C0.519104 4.44791 4.56374 0.404297 9.53378 0.404297C11.9456 0.405312 14.2094 1.34406 15.9118 3.0479C17.6141 4.75175 18.5512 7.01658 18.5503 9.42535C18.5482 14.3954 14.503 18.4396 9.53378 18.4396C9.53349 18.4396 9.53393 18.4396 9.53378 18.4396H9.52987C8.02085 18.439 6.53822 18.0605 5.22127 17.3423L0.441406 18.5957ZM5.44262 15.7105L5.71645 15.8727C6.86684 16.5554 8.18581 16.9165 9.53088 16.9172H9.53378C13.6642 16.9172 17.0261 13.5559 17.0278 9.42477C17.0286 7.42275 16.2499 5.54018 14.8349 4.12408C13.4198 2.70798 11.5384 1.92767 9.53654 1.9268C5.40276 1.9268 2.04102 5.28766 2.03943 9.41869C2.03885 10.8344 2.43488 12.2129 3.18518 13.4059L3.36348 13.6895L2.60622 16.4541L5.44262 15.7105Z" fill="white"/>
<path d="M0.754883 18.281L1.98978 13.7714C1.22788 12.4517 0.827362 10.9545 0.827797 9.42095C0.829681 4.62283 4.73443 0.719238 9.53212 0.719238C11.8607 0.720253 14.0463 1.62653 15.6894 3.27138C17.3329 4.91622 18.2375 7.10263 18.2366 9.42776C18.2346 14.226 14.3297 18.1301 9.53255 18.1301C9.53212 18.1301 9.5327 18.1301 9.53255 18.1301H9.52864C8.07195 18.1295 6.64049 17.7639 5.3692 17.071L0.754883 18.281Z" fill="#64B161"/>
<path d="M0.441406 18.5957L1.72052 13.9247C0.931511 12.5576 0.516495 11.0069 0.517075 9.41811C0.519104 4.44791 4.56374 0.404297 9.53378 0.404297C11.9456 0.405312 14.2094 1.34406 15.9118 3.0479C17.6141 4.75175 18.5512 7.01658 18.5503 9.42535C18.5482 14.3954 14.503 18.4396 9.53378 18.4396C9.53349 18.4396 9.53393 18.4396 9.53378 18.4396H9.52987C8.02085 18.439 6.53822 18.0605 5.22127 17.3423L0.441406 18.5957ZM5.44262 15.7105L5.71645 15.8727C6.86684 16.5554 8.18581 16.9165 9.53088 16.9172H9.53378C13.6642 16.9172 17.0261 13.5559 17.0278 9.42477C17.0286 7.42275 16.2499 5.54018 14.8349 4.12408C13.4198 2.70798 11.5384 1.92767 9.53654 1.9268C5.40276 1.9268 2.04102 5.28766 2.03943 9.41869C2.03885 10.8344 2.43488 12.2129 3.18518 13.4059L3.36348 13.6895L2.60622 16.4541L5.44262 15.7105Z" fill="white"/>
<path fill-rule="evenodd" clip-rule="evenodd" d="M7.28033 5.64971C7.1116 5.27455 6.93388 5.26702 6.77326 5.26049C6.64193 5.25484 6.49161 5.25513 6.34158 5.25513C6.1914 5.25513 5.94729 5.31166 5.74087 5.53707C5.5343 5.76248 4.95215 6.30753 4.95215 7.41603C4.95215 8.52467 5.75957 9.59577 5.8722 9.74623C5.98483 9.89656 7.43079 12.244 9.7207 13.1471C11.6239 13.8977 12.011 13.7484 12.4242 13.7108C12.8373 13.6733 13.7571 13.1658 13.9448 12.6398C14.1327 12.1137 14.1327 11.6629 14.0763 11.5685C14.0199 11.4747 13.8697 11.4183 13.6444 11.3057C13.4192 11.1931 12.3115 10.6479 12.105 10.5728C11.8984 10.4976 11.7482 10.4602 11.5981 10.6857C11.4477 10.911 11.0163 11.4183 10.8849 11.5685C10.7534 11.7191 10.6219 11.738 10.3966 11.6252C10.1714 11.5123 9.44572 11.2745 8.58495 10.507C7.91525 9.90989 7.46297 9.17234 7.3315 8.94679C7.20016 8.72152 7.32932 8.61019 7.4305 8.48712C7.61272 8.26548 7.91843 7.86699 7.99352 7.71681C8.06861 7.56635 8.03107 7.43487 7.97482 7.32209C7.91843 7.20946 7.48051 6.09531 7.28033 5.64971Z" fill="white"/>
</g>
<defs>
<clipPath id="clip0_1234_4327">
<rect width="19" height="19" fill="white"/>
</clipPath>
</defs>
</svg>
